<mxfile host="app.diagrams.net" agent="Mozilla/5.0 (Windows NT 10.0; Win64; x64) AppleWebKit/537.36 (KHTML, like Gecko) Chrome/109.0.0.0 Safari/537.36" version="24.9.1">
  <diagram name="PÃ¡gina-1" id="Mo-eOkKx-PvrOJqUYDjI">
    <mxGraphModel dx="2848" dy="1913" grid="1" gridSize="10" guides="1" tooltips="1" connect="1" arrows="1" fold="1" page="1" pageScale="1" pageWidth="827" pageHeight="1169" math="0" shadow="0">
      <root>
        <mxCell id="0" />
        <mxCell id="1" parent="0" />
        <mxCell id="DlTY5crdzmbEB28ji7_G-1" value="Reserva" style="swimlane;fontStyle=1;align=center;verticalAlign=top;childLayout=stackLayout;horizontal=1;startSize=26;horizontalStack=0;resizeParent=1;resizeParentMax=0;resizeLast=0;collapsible=1;marginBottom=0;whiteSpace=wrap;html=1;fillColor=#BAC8D3;" vertex="1" parent="1">
          <mxGeometry x="-1400" y="-470" width="248" height="170" as="geometry" />
        </mxCell>
        <mxCell id="DlTY5crdzmbEB28ji7_G-2" value="- Data : LocalDate;&lt;div&gt;- horario : ArrayList&amp;lt;Horario&amp;gt;; (Vetor de Horarios de 15 em 15 minutos;&lt;/div&gt;&lt;div&gt;- horarioInicio, horarioFinal : LocalTime&lt;/div&gt;&lt;div&gt;&lt;br&gt;&lt;/div&gt;&lt;div&gt;&lt;br&gt;&lt;/div&gt;" style="text;strokeColor=none;fillColor=none;align=left;verticalAlign=middle;spacingLeft=4;spacingRight=4;overflow=hidden;rotatable=0;points=[[0,0.5],[1,0.5]];portConstraint=eastwest;whiteSpace=wrap;html=1;" vertex="1" parent="DlTY5crdzmbEB28ji7_G-1">
          <mxGeometry y="26" width="248" height="64" as="geometry" />
        </mxCell>
        <mxCell id="DlTY5crdzmbEB28ji7_G-3" value="" style="line;strokeWidth=1;fillColor=none;align=left;verticalAlign=middle;spacingTop=-1;spacingLeft=3;spacingRight=3;rotatable=0;labelPosition=right;points=[];portConstraint=eastwest;strokeColor=inherit;" vertex="1" parent="DlTY5crdzmbEB28ji7_G-1">
          <mxGeometry y="90" width="248" height="10" as="geometry" />
        </mxCell>
        <mxCell id="DlTY5crdzmbEB28ji7_G-4" value="- inserirReserva (String nome,&amp;nbsp;&lt;span style=&quot;background-color: initial;&quot;&gt;LocalTime&lt;/span&gt;&lt;div&gt;&lt;span style=&quot;background-color: initial;&quot;&gt;horario) : Void;&lt;/span&gt;&lt;div&gt;&lt;div&gt;- cancelarReserva (String nome, LocalTime&lt;/div&gt;&lt;div&gt;horario) : Void&lt;/div&gt;&lt;/div&gt;&lt;/div&gt;" style="text;html=1;align=left;verticalAlign=middle;resizable=0;points=[];autosize=1;strokeColor=none;fillColor=none;" vertex="1" parent="DlTY5crdzmbEB28ji7_G-1">
          <mxGeometry y="100" width="248" height="70" as="geometry" />
        </mxCell>
      </root>
    </mxGraphModel>
  </diagram>
</mxfile>
